<?xml version="1.0" encoding="UTF-8"?>
<!DOCTYPE svg PUBLIC "-//W3C//DTD SVG 1.1//EN" "http://www.w3.org/Graphics/SVG/1.1/DTD/svg11.dtd">
<svg xmlns="http://www.w3.org/2000/svg" version="1.1" width="1632px" height="382px" style="shape-rendering:geometricPrecision; text-rendering:geometricPrecision; image-rendering:optimizeQuality; fill-rule:evenodd; clip-rule:evenodd" xmlns:xlink="http://www.w3.org/1999/xlink">
<g><path style="opacity:1" fill="#d75115" d="M 639.5,54.5 C 685.833,54.5 732.167,54.5 778.5,54.5C 778.5,68.1667 778.5,81.8333 778.5,95.5C 764.167,95.5 749.833,95.5 735.5,95.5C 735.5,141.167 735.5,186.833 735.5,232.5C 717.833,232.5 700.167,232.5 682.5,232.5C 682.5,186.833 682.5,141.167 682.5,95.5C 668.167,95.5 653.833,95.5 639.5,95.5C 639.5,81.8333 639.5,68.1667 639.5,54.5 Z"/></g>
<g><path style="opacity:1" fill="#d75115" d="M 798.5,54.5 C 840.167,54.5 881.833,54.5 923.5,54.5C 923.5,68.1667 923.5,81.8333 923.5,95.5C 899.498,95.3334 875.498,95.5 851.5,96C 850.516,104.749 850.183,113.582 850.5,122.5C 868.17,122.333 885.836,122.5 903.5,123C 904.158,129.756 904.491,136.59 904.5,143.5C 904.491,150.41 904.158,157.244 903.5,164C 885.836,164.5 868.17,164.667 850.5,164.5C 850.5,173.5 850.5,182.5 850.5,191.5C 874.833,191.5 899.167,191.5 923.5,191.5C 923.5,205.167 923.5,218.833 923.5,232.5C 881.833,232.5 840.167,232.5 798.5,232.5C 798.5,173.167 798.5,113.833 798.5,54.5 Z"/></g>
<g><path style="opacity:1" fill="#d75115" d="M 940.5,54.5 C 986.833,54.5 1033.17,54.5 1079.5,54.5C 1079.5,68.1667 1079.5,81.8333 1079.5,95.5C 1065.17,95.5 1050.83,95.5 1036.5,95.5C 1036.5,141.167 1036.5,186.833 1036.5,232.5C 1018.83,232.5 1001.17,232.5 983.5,232.5C 983.5,186.833 983.5,141.167 983.5,95.5C 969.167,95.5 954.833,95.5 940.5,95.5C 940.5,81.8333 940.5,68.1667 940.5,54.5 Z"/></g>
<g><path style="opacity:1" fill="#d75115" d="M 1098.5,54.5 C 1133.5,54.3333 1168.5,54.5 1203.5,55C 1222.88,57.3887 1235.04,67.8887 1240,86.5C 1240.67,101.167 1240.67,115.833 1240,130.5C 1237.11,143.059 1229.61,151.559 1217.5,156C 1229.25,158.75 1236.75,165.917 1240,177.5C 1240.5,195.83 1240.67,214.164 1240.5,232.5C 1223.17,232.5 1205.83,232.5 1188.5,232.5C 1188.96,215.097 1188.46,197.764 1187,180.5C 1185.79,178.951 1184.29,177.785 1182.5,177C 1179.24,176.788 1176.08,176.288 1173,175.5C 1167.17,162.5 1161.33,149.5 1155.5,136.5C 1164.82,135.668 1174.15,135.168 1183.5,135C 1184.93,134.535 1186.1,133.701 1187,132.5C 1188.62,121.932 1188.95,111.265 1188,100.5C 1186.62,97.1171 1184.12,95.2838 1180.5,95C 1170.84,94.5002 1161.17,94.3335 1151.5,94.5C 1151.5,140.5 1151.5,186.5 1151.5,232.5C 1133.83,232.5 1116.17,232.5 1098.5,232.5C 1098.5,173.167 1098.5,113.833 1098.5,54.5 Z"/></g>
<g><path style="opacity:1" fill="#e9d900" d="M 1380.5,54.5 C 1398.17,54.5 1415.83,54.5 1433.5,54.5C 1433.67,99.5012 1433.5,144.501 1433,189.5C 1428.83,211.335 1416,225.168 1394.5,231C 1372.54,232.433 1350.54,232.933 1328.5,232.5C 1328.5,218.833 1328.5,205.167 1328.5,191.5C 1342.5,191.667 1356.5,191.5 1370.5,191C 1375.15,190.27 1378.32,187.77 1380,183.5C 1380.5,140.501 1380.67,97.5013 1380.5,54.5 Z"/></g>
<g><path style="opacity:1" fill="#e9d900" d="M 1498.5,54.5 C 1530.17,54.5 1561.83,54.5 1593.5,54.5C 1593.5,67.8333 1593.5,81.1667 1593.5,94.5C 1569.16,94.3334 1544.83,94.5 1520.5,95C 1513.32,96.8042 1510.32,101.471 1511.5,109C 1511.49,112.258 1511.99,115.425 1513,118.5C 1513.5,120.333 1514.67,121.5 1516.5,122C 1535.14,123.043 1553.81,124.043 1572.5,125C 1586.68,128.509 1595.51,137.342 1599,151.5C 1600.98,168.172 1600.98,184.839 1599,201.5C 1594.49,219.007 1583.33,229.174 1565.5,232C 1532.5,232.5 1499.5,232.667 1466.5,232.5C 1466.5,219.167 1466.5,205.833 1466.5,192.5C 1491.5,192.667 1516.5,192.5 1541.5,192C 1545.02,191.496 1547.52,189.663 1549,186.5C 1549.67,180.833 1549.67,175.167 1549,169.5C 1548.23,167.061 1546.73,165.227 1544.5,164C 1530.17,163.667 1515.83,163.333 1501.5,163C 1484.75,162.886 1472.25,155.719 1464,141.5C 1461.12,131.559 1459.95,121.392 1460.5,111C 1460.27,101.064 1461.1,91.2305 1463,81.5C 1469.67,65.5947 1481.5,56.5947 1498.5,54.5 Z"/></g>
<g><path style="opacity:1" fill="#d11312" d="M 30.5,56.5 C 75.1667,56.5 119.833,56.5 164.5,56.5C 164.5,101.167 164.5,145.833 164.5,190.5C 119.833,190.5 75.1667,190.5 30.5,190.5C 30.5,145.833 30.5,101.167 30.5,56.5 Z"/></g>
<g><path style="opacity:1" fill="#d11312" d="M 191.5,56.5 C 236.167,56.5 280.833,56.5 325.5,56.5C 325.5,101.167 325.5,145.833 325.5,190.5C 280.833,190.5 236.167,190.5 191.5,190.5C 191.5,145.833 191.5,101.167 191.5,56.5 Z"/></g>
<g><path style="opacity:1" fill="#29588e" d="M 1266.5,182.5 C 1282.5,182.5 1298.5,182.5 1314.5,182.5C 1314.5,199.167 1314.5,215.833 1314.5,232.5C 1298.5,232.5 1282.5,232.5 1266.5,232.5C 1266.5,215.833 1266.5,199.167 1266.5,182.5 Z"/></g>
<g><path style="opacity:1" fill="#d11312" d="M 191.5,217.5 C 236.167,217.5 280.833,217.5 325.5,217.5C 325.5,262.167 325.5,306.833 325.5,351.5C 280.833,351.5 236.167,351.5 191.5,351.5C 191.5,306.833 191.5,262.167 191.5,217.5 Z"/></g>
<g><path style="opacity:1" fill="#d11312" d="M 352.5,217.5 C 397.167,217.5 441.833,217.5 486.5,217.5C 486.5,262.167 486.5,306.833 486.5,351.5C 441.833,351.5 397.167,351.5 352.5,351.5C 352.5,306.833 352.5,262.167 352.5,217.5 Z M 446.5,273.5 C 457.839,271.778 467.172,275.278 474.5,284C 471.308,286.692 467.975,289.192 464.5,291.5C 462.684,290.185 461.017,288.685 459.5,287C 456.298,285.517 452.964,285.183 449.5,286C 447.016,288.284 446.849,290.784 449,293.5C 457.584,299.413 465.584,306.08 473,313.5C 478.855,327.278 474.689,336.444 460.5,341C 447.531,343.676 437.531,339.509 430.5,328.5C 433.622,325.432 437.289,323.098 441.5,321.5C 445.252,328.376 450.918,330.876 458.5,329C 463.234,326.124 463.734,322.624 460,318.5C 451.751,312.922 444.084,306.588 437,299.5C 430.826,287.502 433.993,278.835 446.5,273.5 Z M 405.5,274.5 C 410.167,274.5 414.833,274.5 419.5,274.5C 419.949,293.555 419.449,312.555 418,331.5C 414.981,338.766 409.481,342.099 401.5,341.5C 393.369,341.575 386.702,338.575 381.5,332.5C 384.367,329.482 387.534,326.816 391,324.5C 394.542,327.859 398.709,329.359 403.5,329C 404.126,328.25 404.626,327.416 405,326.5C 405.5,309.17 405.667,291.837 405.5,274.5 Z"/></g>
<g><path style="opacity:1" fill="#e6e7e6" d="M 639.5,268.5 C 959.833,268.5 1280.17,268.5 1600.5,268.5C 1600.5,296.167 1600.5,323.833 1600.5,351.5C 1280.17,351.5 959.833,351.5 639.5,351.5C 639.5,323.833 639.5,296.167 639.5,268.5 Z M 651.5,279.5 C 663.167,279.5 674.833,279.5 686.5,279.5C 686.5,281.5 686.5,283.5 686.5,285.5C 677.167,285.5 667.833,285.5 658.5,285.5C 658.334,292.508 658.5,299.508 659,306.5C 666.079,307.48 673.245,307.813 680.5,307.5C 680.5,309.5 680.5,311.5 680.5,313.5C 673.167,313.5 665.833,313.5 658.5,313.5C 658.5,320.5 658.5,327.5 658.5,334.5C 667.833,334.5 677.167,334.5 686.5,334.5C 686.5,336.5 686.5,338.5 686.5,340.5C 674.833,340.5 663.167,340.5 651.5,340.5C 651.5,320.167 651.5,299.833 651.5,279.5 Z M 776.5,279.5 C 779.572,279.183 782.572,279.516 785.5,280.5C 793.333,296.833 801.167,313.167 809,329.5C 809.5,312.837 809.667,296.17 809.5,279.5C 811.833,279.5 814.167,279.5 816.5,279.5C 816.5,299.833 816.5,320.167 816.5,340.5C 813.428,340.817 810.428,340.484 807.5,339.5C 799.667,323.167 791.833,306.833 784,290.5C 783.5,307.163 783.333,323.83 783.5,340.5C 781.167,340.5 778.833,340.5 776.5,340.5C 776.5,320.167 776.5,299.833 776.5,279.5 Z M 907.5,279.5 C 909.833,279.5 912.167,279.5 914.5,279.5C 914.5,299.833 914.5,320.167 914.5,340.5C 912.167,340.5 909.833,340.5 907.5,340.5C 907.5,320.167 907.5,299.833 907.5,279.5 Z M 940.5,279.5 C 942.833,279.5 945.167,279.5 947.5,279.5C 947.5,299.833 947.5,320.167 947.5,340.5C 945.167,340.5 942.833,340.5 940.5,340.5C 940.5,331.167 940.5,321.833 940.5,312.5C 934.132,312.83 927.798,312.496 921.5,311.5C 920.5,310.167 919.5,308.833 918.5,307.5C 925.803,306.503 933.137,306.169 940.5,306.5C 940.5,297.5 940.5,288.5 940.5,279.5 Z M 1051.5,279.5 C 1054.5,279.5 1057.5,279.5 1060.5,279.5C 1065.85,299.576 1071.52,319.576 1077.5,339.5C 1074.68,340.971 1072.18,340.637 1070,338.5C 1065.49,321.456 1060.82,304.456 1056,287.5C 1052.43,298.948 1048.93,310.448 1045.5,322C 1050.82,322.499 1056.16,322.666 1061.5,322.5C 1061.83,324.5 1062.17,326.5 1062.5,328.5C 1056.49,328.334 1050.49,328.501 1044.5,329C 1042.8,332.637 1041.8,336.47 1041.5,340.5C 1039.17,340.5 1036.83,340.5 1034.5,340.5C 1039.7,320.041 1045.36,299.707 1051.5,279.5 Z M 1163.5,279.5 C 1166.57,279.183 1169.57,279.516 1172.5,280.5C 1180.33,296.833 1188.17,313.167 1196,329.5C 1196.5,312.837 1196.67,296.17 1196.5,279.5C 1198.83,279.5 1201.17,279.5 1203.5,279.5C 1203.5,299.833 1203.5,320.167 1203.5,340.5C 1200.43,340.817 1197.43,340.484 1194.5,339.5C 1186.67,323.167 1178.83,306.833 1171,290.5C 1170.5,307.163 1170.33,323.83 1170.5,340.5C 1168.17,340.5 1165.83,340.5 1163.5,340.5C 1163.5,320.167 1163.5,299.833 1163.5,279.5 Z M 1305.5,279.5 C 1313.83,279.5 1322.17,279.5 1330.5,279.5C 1330.5,281.5 1330.5,283.5 1330.5,285.5C 1321.42,285.086 1312.42,285.586 1303.5,287C 1301.4,289.042 1300.23,291.542 1300,294.5C 1299.33,304.833 1299.33,315.167 1300,325.5C 1300.23,328.458 1301.4,330.958 1303.5,333C 1312.39,334.443 1321.39,334.943 1330.5,334.5C 1330.5,336.5 1330.5,338.5 1330.5,340.5C 1321.83,340.666 1313.16,340.5 1304.5,340C 1299.43,338.594 1295.93,335.428 1294,330.5C 1292.02,317.161 1292.02,303.828 1294,290.5C 1295.75,284.577 1299.59,280.911 1305.5,279.5 Z M 1421.5,279.5 C 1433.17,279.5 1444.83,279.5 1456.5,279.5C 1456.5,281.5 1456.5,283.5 1456.5,285.5C 1447.17,285.5 1437.83,285.5 1428.5,285.5C 1428.5,292.833 1428.5,300.167 1428.5,307.5C 1435.5,307.5 1442.5,307.5 1449.5,307.5C 1449.5,309.5 1449.5,311.5 1449.5,313.5C 1442.5,313.5 1435.5,313.5 1428.5,313.5C 1428.5,320.5 1428.5,327.5 1428.5,334.5C 1437.51,334.334 1446.51,334.5 1455.5,335C 1456.41,336.699 1456.74,338.533 1456.5,340.5C 1444.83,340.5 1433.17,340.5 1421.5,340.5C 1421.5,320.167 1421.5,299.833 1421.5,279.5 Z M 1546.5,279.5 C 1556.17,279.334 1565.84,279.5 1575.5,280C 1581.78,281.942 1585.61,286.109 1587,292.5C 1587.67,304.5 1587.67,316.5 1587,328.5C 1585.6,334.236 1582.1,338.069 1576.5,340C 1571.5,340.667 1566.5,340.667 1561.5,340C 1559.79,338.622 1558.45,336.955 1557.5,335C 1563.5,334.667 1569.5,334.333 1575.5,334C 1577.81,332.891 1579.31,331.057 1580,328.5C 1580.67,316.167 1580.67,303.833 1580,291.5C 1578.83,289 1577,287.167 1574.5,286C 1567.51,285.5 1560.51,285.334 1553.5,285.5C 1553.5,303.833 1553.5,322.167 1553.5,340.5C 1551.17,340.5 1548.83,340.5 1546.5,340.5C 1546.5,320.167 1546.5,299.833 1546.5,279.5 Z"/></g>
</svg>
