<?xml version="1.0" encoding="UTF-8"?>
<!DOCTYPE svg PUBLIC "-//W3C//DTD SVG 1.1//EN" "http://www.w3.org/Graphics/SVG/1.1/DTD/svg11.dtd">
<svg xmlns="http://www.w3.org/2000/svg" version="1.1" width="1350px" height="1350px" style="shape-rendering:geometricPrecision; text-rendering:geometricPrecision; image-rendering:optimizeQuality; fill-rule:evenodd; clip-rule:evenodd" xmlns:xlink="http://www.w3.org/1999/xlink">
<g><path style="opacity:1" fill="#ad0f0e" d="M 475.5,205.5 C 607.833,205.5 740.167,205.5 872.5,205.5C 872.5,338.833 872.5,472.167 872.5,605.5C 740.167,605.5 607.833,605.5 475.5,605.5C 475.5,472.167 475.5,338.833 475.5,205.5 Z"/></g>
<g><path style="opacity:1" fill="#ad0f0e" d="M 1.5,206.5 C 133.167,206.5 264.833,206.5 396.5,206.5C 396.5,339.5 396.5,472.5 396.5,605.5C 264.5,605.5 132.5,605.5 0.5,605.5C 0.168518,472.43 0.501852,339.43 1.5,206.5 Z"/></g>
<g><path style="opacity:1" fill="#ad0f0e" d="M 481.5,685.5 C 611.5,685.5 741.5,685.5 871.5,685.5C 872.467,818.161 872.8,950.828 872.5,1083.5C 740.167,1083.5 607.833,1083.5 475.5,1083.5C 474.287,951.169 474.287,818.836 475.5,686.5C 477.735,686.795 479.735,686.461 481.5,685.5 Z"/></g>
<g><path style="opacity:1" fill="#ad0f0e" d="M 1349.5,752.5 C 1349.5,863.167 1349.5,973.833 1349.5,1084.5C 1216.83,1084.5 1084.17,1084.5 951.5,1084.5C 951.5,951.5 951.5,818.5 951.5,685.5C 1083.83,685.5 1216.17,685.5 1348.5,685.5C 1348.17,708.006 1348.5,730.34 1349.5,752.5 Z M 1242.5,851.5 C 1271.76,850.083 1295.76,860.583 1314.5,883C 1304.24,890.712 1294.08,898.546 1284,906.5C 1276.26,894.875 1265.42,888.209 1251.5,886.5C 1243.44,886.218 1237.61,889.551 1234,896.5C 1233.18,899.964 1233.52,903.298 1235,906.5C 1253.63,923.47 1273.13,939.303 1293.5,954C 1316.1,971.791 1322.93,994.291 1314,1021.5C 1300.55,1044.74 1280.22,1056.07 1253,1055.5C 1221.52,1055.52 1198.35,1041.85 1183.5,1014.5C 1184.31,1013.19 1185.31,1012.02 1186.5,1011C 1196.27,1005.7 1206.1,1000.53 1216,995.5C 1220.73,1001.24 1225.9,1006.74 1231.5,1012C 1247.11,1023.88 1261.94,1023.05 1276,1009.5C 1278.19,1003.35 1277.85,997.355 1275,991.5C 1261,977.49 1245.83,964.99 1229.5,954C 1222.33,947.5 1215.17,941 1208,934.5C 1199.32,924.805 1194.15,913.472 1192.5,900.5C 1194.5,878.649 1205.84,863.815 1226.5,856C 1231.87,854.16 1237.21,852.66 1242.5,851.5 Z M 1110.5,856.5 C 1123.88,856.185 1137.22,856.518 1150.5,857.5C 1151.78,909.171 1151.62,960.837 1150,1012.5C 1147.07,1035.55 1134.23,1049.38 1111.5,1054C 1082.29,1058.54 1057.95,1049.87 1038.5,1028C 1046.8,1018.68 1056.13,1010.51 1066.5,1003.5C 1071.35,1006.76 1076.01,1010.26 1080.5,1014C 1088.27,1018.75 1096.27,1019.75 1104.5,1017C 1106.04,1015.42 1107.21,1013.59 1108,1011.5C 1109.24,1000.22 1109.91,988.891 1110,977.5C 1110.5,937.168 1110.67,896.835 1110.5,856.5 Z"/></g>
</svg>
